<?xml version="1.0" encoding="UTF-8"?>
<!DOCTYPE svg PUBLIC "-//W3C//DTD SVG 1.1//EN" "http://www.w3.org/Graphics/SVG/1.1/DTD/svg11.dtd">
<!-- Creator: CorelDRAW -->
<svg xmlns="http://www.w3.org/2000/svg" xml:space="preserve" width="6.82666in" height="6.82666in" style="shape-rendering:geometricPrecision; text-rendering:geometricPrecision; image-rendering:optimizeQuality; fill-rule:evenodd; clip-rule:evenodd"
viewBox="0 0 6.82666 6.82666"
 xmlns:xlink="http://www.w3.org/1999/xlink">
 <defs>
  <style type="text/css">
   <![CDATA[
    .fil34 {fill:#556D6E}
    .fil30 {fill:#79C7C9}
    .fil1 {fill:#81CACC}
    .fil7 {fill:#86CCCD}
    .fil15 {fill:#8ACDD0}
    .fil23 {fill:#90D1D3}
    .fil8 {fill:#92D1D3}
    .fil16 {fill:#97D4D5}
    .fil14 {fill:#9AD4D6}
    .fil9 {fill:#9BD4D7}
    .fil3 {fill:#A2D7DA}
    .fil0 {fill:#A5DADB}
    .fil31 {fill:#A7DADC}
    .fil6 {fill:#A8DBDC}
    .fil2 {fill:#AADBDD}
    .fil32 {fill:#ADDCDD}
    .fil20 {fill:#ADDCDE}
    .fil13 {fill:#B2DEE0}
    .fil11 {fill:#B3DFE0}
    .fil10 {fill:#B9E2E3}
    .fil18 {fill:#BBE2E4}
    .fil12 {fill:#BCE3E4}
    .fil5 {fill:#BDE4E4}
    .fil17 {fill:#C0E4E5}
    .fil28 {fill:#C3E5E7}
    .fil4 {fill:#C4E6E7}
    .fil19 {fill:#C6E7E8}
    .fil21 {fill:#C8E7E9}
    .fil27 {fill:#C9E8E9}
    .fil22 {fill:#CAE9EA}
    .fil25 {fill:#CCEAEB}
    .fil24 {fill:#D2ECEC}
    .fil26 {fill:#D4EDEE}
    .fil29 {fill:#DAEFF0}
    .fil33 {fill:#556D6E;fill-rule:nonzero}
   ]]>
  </style>
 </defs>
 <g id="Layer_x0020_1">
  <metadata id="CorelCorpID_0Corel-Layer"/>
  <g id="_454358328">
   <path id="_454362720" class="fil0" d="M3.41333 0.103323c1.82806,0 3.31001,1.48194 3.31001,3.31001 0,1.82806 -1.48195,3.31001 -3.31001,3.31001 -1.82806,0 -3.31001,-1.48195 -3.31001,-3.31001 0,-1.82806 1.48194,-3.31001 3.31001,-3.31001z"/>
   <g>
    <path id="_454362624" class="fil1" d="M0.848996 1.35054l-0.00955512 -0.0181772c0.00812205,-0.0100315 0.0161811,-0.0201142 0.0244173,-0.0300472l-0.0148622 0.0482244z"/>
    <path id="_454362408" class="fil2" d="M0.103449 3.42324l0.0743543 0.130587 -0.0566614 0.204283c-0.0113976,-0.11011 -0.0173622,-0.221823 -0.0176929,-0.33487z"/>
    <path id="_454362480" class="fil3" d="M0.177803 3.55383l-0.0743543 -0.130587c-1.1811e-005,-0.00331102 -0.000125984,-0.00659843 -0.000125984,-0.00991339 0,-0.0528071 0.00137402,-0.105287 0.0038189,-0.157488l0.0706614 0.297988z"/>
    <path id="_454362456" class="fil4" d="M1.1887 5.86429l0.775917 -0.143961 -0.0894724 0.624378c-0.24922,-0.131047 -0.479807,-0.292748 -0.686445,-0.480417z"/>
    <path id="_454362384" class="fil5" d="M0.878551 5.54172l0.5695 -2.23277 0.516563 2.41138 -0.775917 0.143961c-0.110504,-0.100374 -0.214043,-0.20824 -0.310146,-0.322571z"/>
    <path id="_454362360" class="fil6" d="M1.44805 3.30895l-1.24858 -0.689815c0.0192835,-0.0782835 0.0413425,-0.155461 0.0660827,-0.231445l1.25487 -0.278315 -0.072378 1.19957z"/>
    <path id="_454362648" class="fil7" d="M0.839441 1.33236l0.00955512 0.0181772 -0.027437 0.00402362c0.00591732,-0.00743701 0.0119016,-0.014815 0.0178819,-0.0222008z"/>
    <path id="_454361352" class="fil8" d="M0.821559 1.35456l0.027437 -0.00402362 -0.19289 0.231154c0.0519961,-0.0781063 0.107193,-0.153882 0.165453,-0.22713z"/>
    <path id="_454362048" class="fil9" d="M0.656106 1.58169l0.19289 -0.231154 0.671433 0.758843 -1.25487 0.278315c0.0938268,-0.288016 0.225945,-0.558717 0.390551,-0.806004z"/>
    <path id="_454362000" class="fil2" d="M0.177803 3.55383l0 0 -0.0706614 -0.297988c0.0102362,-0.218461 0.041748,-0.431323 0.0923307,-0.636705l1.24858 0.689815 -1.27025 0.244878z"/>
    <path id="_454361904" class="fil10" d="M0.207256 4.23942l1.2408 -0.930469 -0.5695 2.23277c-0.313488,-0.372961 -0.546346,-0.815949 -0.671295,-1.3023z"/>
    <path id="_454361928" class="fil11" d="M0.121142 3.75811l0.0566614 -0.204283 1.27025 -0.244878 -1.2408 0.930469c-0.0401457,-0.156264 -0.0691102,-0.317012 -0.0861142,-0.481307z"/>
    <polygon id="_454361568" class="fil12" points="2.79068,4.64309 1.44805,3.30895 2.33618,3.05189 "/>
    <polygon id="_454361712" class="fil0" points="2.33618,3.05189 1.52043,2.10938 2.08858,1.13015 "/>
    <polygon id="_454361952" class="fil13" points="1.44805,3.30895 1.52043,2.10938 2.33618,3.05189 "/>
    <path id="_454361808" class="fil14" d="M4.67046 2.62346l-0.661 -1.18727 1.14137 -0.840472c0.0475315,0.029374 0.0942441,0.059937 0.140138,0.0916063l-0.620504 1.93613z"/>
    <path id="_454361832" class="fil15" d="M0.848996 1.35054l0.0148622 -0.0482244c0.165748,-0.199949 0.354567,-0.380055 0.562374,-0.536295l0.662346 0.364134 -1.23958 0.220386z"/>
    <polygon id="_454360608" class="fil16" points="1.52043,2.10938 1.52043,2.10938 0.848996,1.35054 2.08858,1.13015 "/>
    <path id="_454360656" class="fil7" d="M2.08858 1.13015l-0.662346 -0.364134c0.201398,-0.151413 0.420697,-0.280228 0.654047,-0.383043l0.00829921 0.747177z"/>
    <polygon id="_454360992" class="fil17" points="1.96461,5.72033 1.96461,5.72033 1.44805,3.30895 2.79068,4.64309 "/>
    <polygon id="_454361304" class="fil18" points="4.35036,4.32486 3.48275,3.73742 4.67046,2.62346 "/>
    <path id="_454360752" class="fil19" d="M1.87514 6.34471l0.0894724 -0.624378 0.601437 0.89337c-0.242295,-0.0640354 -0.473713,-0.154787 -0.690909,-0.268992z"/>
    <polygon id="_454361040" class="fil20" points="3.48275,3.73742 4.00946,1.4362 4.67046,2.62346 "/>
    <path id="_454360680" class="fil7" d="M2.08858 1.13015l0 0 -0.00829921 -0.747177c0.114626,-0.0504961 0.232583,-0.0948189 0.353571,-0.132272l1.09017 0.230638 -1.43544 0.648811z"/>
    <polygon id="_454360704" class="fil5" points="2.79068,4.64309 2.79068,4.64309 2.33618,3.05189 3.48275,3.73742 "/>
    <polygon id="_454360632" class="fil21" points="3.6273,6.66272 1.96461,5.72033 2.79068,4.64309 "/>
    <path id="_454361184" class="fil22" d="M2.56605 6.6137l-0.601437 -0.89337 1.66269 0.94239 -0.115126 0.0590276c-0.0328425,0.000964567 -0.0657717,0.00159055 -0.0988465,0.00159055 -0.292894,0 -0.576827,-0.0382244 -0.84728,-0.109638z"/>
    <polygon id="_454360944" class="fil13" points="3.48275,3.73742 3.48275,3.73742 2.33618,3.05189 4.00946,1.4362 "/>
    <polygon id="_454360464" class="fil3" points="2.33618,3.05189 2.33618,3.05189 2.08858,1.13015 4.00946,1.4362 "/>
    <polygon id="_454360392" class="fil23" points="4.00946,1.4362 2.08858,1.13015 3.52402,0.481339 "/>
    <path id="_454359864" class="fil24" d="M3.51218 6.72175l0.115126 -0.0590276 0.0255039 0.0519291c-0.046622,0.00333071 -0.0934961,0.00571654 -0.14063,0.00709843z"/>
    <polygon id="_454360200" class="fil25" points="3.6273,6.66272 3.6273,6.66272 2.79068,4.64309 4.25735,6.2955 "/>
    <polygon id="_454360152" class="fil21" points="4.25735,6.2955 4.25735,6.2955 2.79068,4.64309 4.35036,4.32486 "/>
    <path id="_454359792" class="fil26" d="M3.65281 6.71465l-0.0255039 -0.0519291 0.630047 -0.367217 -0.0382047 0.32885c-0.18322,0.0458268 -0.372453,0.0764291 -0.566339,0.0902953z"/>
    <polygon id="_454360128" class="fil17" points="2.79068,4.64309 3.48275,3.73742 4.35036,4.32486 "/>
    <path id="_454360272" class="fil15" d="M4.00946 1.4362l0 0 -0.485449 -0.954858 1.3559 -0.0359291c0.0928543,0.0459724 0.183244,0.0961417 0.270913,0.150315l-1.14137 0.840472z"/>
    <polygon id="_454360320" class="fil22" points="4.25735,6.2955 4.35036,4.32486 5.3211,4.96137 "/>
    <path id="_454360080" class="fil1" d="M3.52402 0.481339l0 0 -1.09017 -0.230638c0.043185,-0.0133583 0.0867992,-0.0257165 0.130717,-0.0373386l2.18331 0.170264c0.0445433,0.0196496 0.0885551,0.0402559 0.132043,0.0617835l-1.3559 0.0359291z"/>
    <path id="_454359024" class="fil27" d="M5.77484 5.73237l-0.453736 -0.771004 0.671315 -0.73435 0.0963543 1.13518c-0.0956063,0.131 -0.200547,0.254724 -0.313933,0.370173z"/>
    <polygon id="_454359696" class="fil28" points="5.3211,4.96137 5.3211,4.96137 4.35036,4.32486 5.99242,4.22702 "/>
    <path id="_454359624" class="fil2" d="M5.99242 4.22702l-1.32195 -1.60355 1.41273 -1.16665c0.0535512,0.0729528 0.104217,0.148142 0.151768,0.225465l-0.242543 2.54474z"/>
    <path id="_454359384" class="fil16" d="M4.67046 2.62346l0.620504 -1.93613c0.305094,0.210547 0.573051,0.470965 0.792224,0.76948l-1.41273 1.16665z"/>
    <path id="_454359312" class="fil24" d="M4.9598 6.34034l-0.702445 -0.0448386 1.06375 -1.33414 0.453736 0.771004c-0.237807,0.242094 -0.512496,0.447787 -0.815043,0.607972z"/>
    <polygon id="_454359192" class="fil10" points="4.35036,4.32486 4.67046,2.62346 5.99242,4.22702 "/>
    <path id="_454359456" class="fil29" d="M4.21915 6.62435l0.0382047 -0.32885 0.702445 0.0448386c-0.231933,0.122783 -0.480146,0.218843 -0.74065,0.284012z"/>
    <path id="_454359504" class="fil30" d="M3.92407 0.142563l-1.13726 0.0202362c0.202898,-0.038874 0.412287,-0.0594764 0.62652,-0.0594764 0.173705,0 0.344256,0.0134567 0.510736,0.0392402z"/>
    <path id="_454359240" class="fil1" d="M4.74787 0.383626l-2.18331 -0.170264c0.0731181,-0.0193425 0.147244,-0.0361732 0.222244,-0.050563l1.13726 -0.0202362c0.288614,0.0447717 0.564886,0.126846 0.823807,0.241063z"/>
    <path id="_454359432" class="fil31" d="M5.99242 4.22702l0.242543 -2.54474c0.303177,0.493126 0.480571,1.07176 0.487874,1.69135l-0.730417 0.85339z"/>
    <path id="_454359072" class="fil32" d="M5.99242 4.22702l0.730417 -0.85339c0.000153543,0.0132362 0.000503937,0.0264291 0.000503937,0.0397047 0,0.224563 -0.0224803,0.443858 -0.0651024,0.65587l-0.665819 0.157815z"/>
    <path id="_454359000" class="fil19" d="M6.08877 5.3622l-0.0963543 -1.13518 0.487413 0.434063c-0.102067,0.250465 -0.233831,0.485642 -0.391059,0.701118z"/>
    <path id="_454358400" class="fil18" d="M6.47983 4.66108l-0.487413 -0.434063 0.665819 -0.157815c-0.0412244,0.204756 -0.101335,0.402665 -0.178406,0.591878z"/>
   </g>
   <path id="_454358856" class="fil33" d="M3.41333 0c0.942551,0 1.79589,0.382055 2.41358,0.999752 0.617697,0.617693 0.999752,1.47103 0.999752,2.41358 0,0.942551 -0.382055,1.79589 -0.999752,2.41358 -0.617693,0.617697 -1.47103,0.999752 -2.41358,0.999752 -0.942551,0 -1.79589,-0.382055 -2.41358,-0.999752 -0.617697,-0.617693 -0.999752,-1.47103 -0.999752,-2.41358 0,-0.942551 0.382055,-1.79589 0.999752,-2.41358 0.617693,-0.617697 1.47103,-0.999752 2.41358,-0.999752zm2.26731 1.14602c-0.580248,-0.580248 -1.38187,-0.939146 -2.26731,-0.939146 -0.885445,0 -1.68707,0.358898 -2.26731,0.939146 -0.580248,0.580248 -0.939146,1.38187 -0.939146,2.26731 0,0.885445 0.358898,1.68707 0.939146,2.26731 0.580248,0.580248 1.38187,0.939146 2.26731,0.939146 0.885445,0 1.68707,-0.358898 2.26731,-0.939146 0.580248,-0.580248 0.939146,-1.38187 0.939146,-2.26731 0,-0.885445 -0.358898,-1.68707 -0.939146,-2.26731z"/>
  </g>
  <g id="_454358040">
   <path id="_454358880" class="fil34" d="M5.39191 2.82843c0.0295906,0.0311024 0.0283622,0.0803071 -0.00274016,0.109898l-0.340906 0.322531 0.000106299 0.000173228c-0.0311969,0.0296496 -0.0805315,0.0283937 -0.110177,-0.00280709 -0.00142913,-0.0015 -0.00278346,-0.00304331 -0.00406693,-0.00462992l-0.849953 -0.915331 -0.000181102 5.90551e-005c-0.0292874,-0.0315394 -0.0274646,-0.0808543 0.00407874,-0.110138 0.00114173,-0.00105906 0.00230709,-0.00207087 0.00349213,-0.00305118l0.358244 -0.339012c0.0311024,-0.0295866 0.0803071,-0.0283622 0.109898,0.00274016 0.019374,0.0203661 0.45374,0.541929 0.832205,0.939567zm-0.31878 0.0318268c0.0518386,0 0.0938622,0.0420236 0.0938622,0.0938622 0,0.0518425 -0.0420236,0.0938661 -0.0938622,0.0938661 -0.0518386,0 -0.0938661,-0.0420236 -0.0938661,-0.0938661 0,-0.0518386 0.0420276,-0.0938622 0.0938661,-0.0938622z"/>
   <path id="_454358664" class="fil34" d="M1.43474 2.79572c-0.0295866,0.0311024 -0.0283622,0.0803071 0.00274016,0.109898l0.340906 0.322535 -0.000106299 0.000173228c0.0311969,0.0296496 0.0805315,0.0283898 0.110177,-0.00280709 0.00142913,-0.0015 0.00278346,-0.00304724 0.00407087,-0.00462992l0.849953 -0.915331 0.000181102 5.90551e-005c0.0292835,-0.0315394 0.0274606,-0.0808543 -0.00407874,-0.110138 -0.00114173,-0.00105906 -0.00230709,-0.00207087 -0.00349213,-0.00305118l-0.358244 -0.339012c-0.0311063,-0.0295906 -0.080311,-0.0283661 -0.109898,0.00274016 -0.019378,0.0203661 -0.453744,0.541929 -0.832209,0.939563zm0.31878 0.0318307c-0.0518386,0 -0.0938622,0.0420236 -0.0938622,0.0938622 0,0.0518386 0.0420236,0.0938661 0.0938622,0.0938661 0.0518425,0 0.0938661,-0.0420276 0.0938661,-0.0938661 0,-0.0518386 -0.0420236,-0.0938622 -0.0938661,-0.0938622z"/>
   <path id="_454357800" class="fil33" d="M3.82935 2.61651c0.0155,-0.0144921 0.0367441,-0.0343701 0.0666339,-0.0623543 0.0834173,-0.0781024 0.138366,-0.125512 0.151705,-0.137976l0.0011378 -0.00118898 0.0122008 0.0131417 0.000181102 -6.29921e-005 0.798142 0.859535 -0.339823 0.312913c0.00226772,0.0467717 -0.00508661,0.0947992 -0.0202598,0.143579 -0.105327,-0.0716811 -0.25074,-0.0609646 -0.344055,0.0322402 -0.0369134,0.0368661 -0.0613189,0.0825354 -0.0724094,0.131047 -0.091878,-0.0267756 -0.193913,-0.00635827 -0.266673,0.0663976 -0.0504921,0.0504921 -0.078815,0.11911 -0.080437,0.188764 -0.0528701,0.00930709 -0.102516,0.0343189 -0.141992,0.0737953 -0.0492441,0.0492402 -0.0772165,0.116335 -0.0798465,0.184555 -0.0607047,0.00635433 -0.118866,0.0330236 -0.163634,0.0777874 -0.103402,0.103398 -0.104969,0.270209 -0.00652362,0.376594 -0.00542913,0.000188976 -0.0108661,0.000192913 -0.0162953,3.93701e-006 -0.0555945,-0.00195669 -0.11063,-0.024063 -0.152976,-0.0658307l-0.000476378 -0.000405512 -0.000484252 -0.000413386 -0.001 -0.000885827 -0.000456693 -0.000405512 -0.00103937 -0.000964567 -0.000456693 -0.000433071 -0.000814961 -0.000791339 -0.000440945 -0.000433071 3.93701e-006 -3.93701e-006c-0.000637795,-0.000641732 -0.00127559,-0.00129134 -0.00189764,-0.00195669l6.69291e-005 -0.000181102c-0.0177992,-0.0190906 -0.0317008,-0.0404685 -0.0417323,-0.063126 -0.044,0.0352244 -0.0979016,0.0517244 -0.151122,0.0498661 -0.0589724,-0.00205512 -0.117142,-0.0264488 -0.160236,-0.0726654 -0.0245354,-0.026311 -0.0416614,-0.0569646 -0.0514646,-0.0893307 -0.0222992,0.00602362 -0.045315,0.00861811 -0.0682008,0.0078189 -0.0891457,-0.00311417 -0.14189,-0.0478268 -0.173126,-0.0877362 -0.0341654,-0.0436339 -0.0501535,-0.0967362 -0.0483228,-0.149173 0.0018622,-0.0534094 0.0220433,-0.106157 0.0601654,-0.147646 -0.031185,-0.0164685 -0.0545709,-0.0371181 -0.0741811,-0.0625394 -0.0480315,-0.0622953 -0.0660433,-0.198154 -0.0230906,-0.265799 0.0525315,-0.0827323 0.20511,-0.200803 0.366067,-0.35052 0.171535,-0.159563 0.354264,-0.351157 0.491016,-0.442465 0.111713,-0.0745945 0.166453,-0.112122 0.258476,-0.0031063 0.122358,0.161146 0.442035,0.222319 0.551693,0.0538465 0.0616496,-0.0643661 0.0796457,-0.150831 0.0557244,-0.235819 -0.0189882,-0.0674567 -0.0626024,-0.126402 -0.112646,-0.174311 -0.017622,-0.0168701 -0.0362874,-0.0326693 -0.0556063,-0.0475591 -0.0587874,-0.045311 -0.109614,-0.0798583 -0.161492,-0.105803z"/>
   <path id="_454357920" class="fil33" d="M2.39109 3.85114c-0.0279252,-0.0485472 -0.0478031,-0.0978228 -0.0651181,-0.144094 -0.020063,-0.0535984 -0.0301575,-0.106165 -0.0281575,-0.157122l-0.311378 -0.290366c0.27013,-0.290906 0.540563,-0.581933 0.810606,-0.872701 0.0409016,0.0392717 0.0828071,0.0778386 0.124205,0.116594 0.102476,0.0959488 0.103358,0.0966378 0.119165,0.11148 0.11435,0.0429961 0.228567,0.0318228 0.333421,0.0215551 0.0628346,-0.00615354 0.122752,-0.0120157 0.181622,-0.00802362 0.0945512,0.00641339 0.161602,0.0214331 0.224953,0.0507008l0.0140906 0.00704724c0.0699055,0.0349606 0.177815,0.104728 0.24224,0.189102 0.16728,0.219118 -0.138626,0.484209 -0.418756,0.204764 -0.0018937,-0.00188583 -0.00453937,-0.0027874 -0.00674409,-0.00418504 -0.0220591,-0.0261575 -0.0514291,-0.0567087 -0.0850433,-0.0716417 -0.00324803,-0.00259055 -0.00664567,-0.00501181 -0.0101811,-0.00724803 -0.0833661,-0.0526969 -0.196654,0.0210827 -0.266083,0.0674409 -0.0651732,0.0435197 -0.126957,0.0974843 -0.184866,0.150193 -0.0674921,0.0614331 -0.132949,0.125213 -0.198677,0.188524 -0.0388465,0.0374213 -0.0777795,0.0747638 -0.117276,0.1115 -0.0730945,0.0679921 -0.148827,0.132732 -0.222858,0.199618 -0.043752,0.0395276 -0.096815,0.0874173 -0.135165,0.136862z"/>
   <path id="_454357704" class="fil33" d="M3.67247 4.60041c-0.0304291,-0.0302638 -0.0305669,-0.0794685 -0.00030315,-0.109898 0.0302598,-0.0304291 0.0794646,-0.0305669 0.109898,-0.00030315l0.124291 0.122992c0.0304331,0.0302638 0.0305709,0.0794685 0.000307087,0.109898 -0.0302638,0.0304291 -0.0794685,0.0305669 -0.109898,0.00030315l-0.124295 -0.122992z"/>
   <path id="_454357488" class="fil33" d="M3.91141 4.40481c-0.0304291,-0.0302638 -0.0305669,-0.0794685 -0.00030315,-0.109898 0.0302638,-0.0304291 0.0794685,-0.0305669 0.109898,-0.00030315l0.124295 0.122992c0.0304331,0.0302638 0.0305709,0.0794685 0.000307087,0.109898 -0.0302638,0.0304291 -0.0794685,0.0305709 -0.109898,0.000307087l-0.124299 -0.122996z"/>
   <path id="_454358208" class="fil33" d="M4.12289 4.19775c-0.0322795,-0.0282441 -0.0355512,-0.077315 -0.00730709,-0.109594 0.0282441,-0.0322795 0.077315,-0.0355512 0.109594,-0.00730709l0.0931811 0.0815118c0.0322795,0.0282441 0.0355512,0.077311 0.00730709,0.109591 -0.0282441,0.0322795 -0.077315,0.0355512 -0.109594,0.00730709l-0.0931811 -0.0815079z"/>
   <path id="_454358064" class="fil34" d="M3.60827 4.50895c-0.0682992,-0.0248307 -0.148378,-0.00972047 -0.202945,0.0448425l0 0c-0.0750866,0.0750866 -0.0746693,0.197413 -0.000161417,0.273043l0.109567 0.111224c0.0745079,0.0756299 0.197961,0.075252 0.273047,0.000161417l0 -3.93701e-006c0.055126,-0.055126 0.0695591,-0.135697 0.0438543,-0.204579l0.0567205 0.0524291c0.0779646,0.0720669 0.197961,0.0752559 0.273047,0.000165354l0 -3.93701e-006c0.0469173,-0.0469173 0.0657087,-0.113661 0.054185,-0.17472 0.0770118,0.0502992 0.179008,0.0460079 0.245874,-0.0208583l0 -3.93701e-006c0.0750866,-0.0750906 0.0787283,-0.201602 0.000161417,-0.273043l-0.0542835 -0.0493583c0.0655118,0.019 0.139299,0.00283858 0.190724,-0.0485276l3.93701e-006 -3.93701e-006c0.0751339,-0.0750433 0.0752047,-0.197909 0.000161417,-0.273043l-0.114898 -0.115035c-0.0750433,-0.0751299 -0.197909,-0.0752047 -0.273043,-0.000161417l-3.93701e-006 3.93701e-006c-0.0609843,0.0609134 -0.0725118,0.153335 -0.0345591,0.226165l-0.0314409 -0.0285945c-0.0785669,-0.071437 -0.197957,-0.075248 -0.273043,-0.000161417l-3.93701e-006 3.93701e-006c-0.0568504,0.0568465 -0.0727244,0.143181 -0.0429961,0.212768 -0.0628701,-0.0147441 -0.13063,0.000988189 -0.179433,0.0497874l0 3.93701e-006c-0.0582165,0.0582126 -0.0731102,0.146969 -0.0405354,0.2175z"/>
  </g>
 </g>
</svg>
