<?xml version="1.0" encoding="UTF-8"?>
<!DOCTYPE svg PUBLIC "-//W3C//DTD SVG 1.1//EN" "http://www.w3.org/Graphics/SVG/1.1/DTD/svg11.dtd">
<!-- Creator: CorelDRAW -->
<svg xmlns="http://www.w3.org/2000/svg" xml:space="preserve" width="6.82666in" height="6.82666in" style="shape-rendering:geometricPrecision; text-rendering:geometricPrecision; image-rendering:optimizeQuality; fill-rule:evenodd; clip-rule:evenodd"
viewBox="0 0 6.82666 6.82666"
 xmlns:xlink="http://www.w3.org/1999/xlink">
 <defs>
  <style type="text/css">
   <![CDATA[
    .fil34 {fill:#544A59}
    .fil30 {fill:#A37BB8}
    .fil1 {fill:#A882BD}
    .fil7 {fill:#AB86BE}
    .fil16 {fill:#AE8CC1}
    .fil0 {fill:#B392C5}
    .fil8 {fill:#B494C5}
    .fil17 {fill:#B799C8}
    .fil15 {fill:#B99BCA}
    .fil9 {fill:#BA9CCA}
    .fil3 {fill:#BEA3CD}
    .fil13 {fill:#C1A6CF}
    .fil31 {fill:#C2A8D0}
    .fil6 {fill:#C4A9D1}
    .fil2 {fill:#C4ABD2}
    .fil32 {fill:#C6ADD4}
    .fil21 {fill:#C6AED4}
    .fil14 {fill:#C9B3D6}
    .fil11 {fill:#CBB4D7}
    .fil10 {fill:#CEBADA}
    .fil19 {fill:#D0BCDB}
    .fil12 {fill:#D1BDDC}
    .fil5 {fill:#D2BEDC}
    .fil18 {fill:#D4C1DD}
    .fil28 {fill:#D5C4DF}
    .fil4 {fill:#D6C5DF}
    .fil20 {fill:#D8C7E1}
    .fil22 {fill:#D9C9E2}
    .fil27 {fill:#DACAE3}
    .fil23 {fill:#DBCBE4}
    .fil25 {fill:#DCCDE4}
    .fil24 {fill:#E0D3E7}
    .fil26 {fill:#E2D5E9}
    .fil29 {fill:#E5DBEC}
    .fil33 {fill:#544A59;fill-rule:nonzero}
   ]]>
  </style>
 </defs>
 <g id="Layer_x0020_1">
  <metadata id="CorelCorpID_0Corel-Layer"/>
  <g id="_422893992">
   <path id="_422897568" class="fil0" d="M3.41333 0.103323c1.82806,0 3.31001,1.48194 3.31001,3.31001 0,1.82806 -1.48195,3.31001 -3.31001,3.31001 -1.82806,0 -3.31001,-1.48195 -3.31001,-3.31001 0,-1.82806 1.48194,-3.31001 3.31001,-3.31001z"/>
   <g>
    <path id="_422897880" class="fil1" d="M0.848209 1.34939l-0.00888189 -0.0168976c0.0075748,-0.00935827 0.0150591,-0.0187835 0.0227323,-0.0280551l-0.0138504 0.0449528z"/>
    <path id="_422897496" class="fil2" d="M0.103453 3.42352l0.0735669 0.129205 -0.0561969 0.202602c-0.0111969,-0.109118 -0.0170315,-0.219815 -0.0173701,-0.331807z"/>
    <path id="_422897856" class="fil3" d="M0.17702 3.55273l-0.0735669 -0.129205c-1.1811e-005,-0.00340551 -0.000129921,-0.00678346 -0.000129921,-0.0101929 0,-0.0521693 0.0013622,-0.10402 0.00374803,-0.155598l0.0699488 0.294996z"/>
    <path id="_422898000" class="fil4" d="M1.18754 5.86326l0.776205 -0.144028 -0.0895472 0.624984c-0.249323,-0.131201 -0.479984,-0.293083 -0.686657,-0.480957z"/>
    <path id="_422897976" class="fil5" d="M0.877756 5.54078l0.569512 -2.23293 0.51648 2.41138 -0.776205 0.144028c-0.110374,-0.10035 -0.213795,-0.208189 -0.309787,-0.322472z"/>
    <path id="_422898120" class="fil6" d="M1.44727 3.30785l-1.24765 -0.689331c0.0193661,-0.0785591 0.0415315,-0.156004 0.0663937,-0.232244l1.25359 -0.278039 -0.0723386 1.19961z"/>
    <path id="_422896944" class="fil7" d="M0.839327 1.3325l0.00888189 0.0168976 -0.0255039 0.00374016c0.00550394,-0.00690945 0.0110669,-0.0137717 0.016622,-0.0206378z"/>
    <path id="_422896872" class="fil8" d="M0.822705 1.35313l0.0255039 -0.00374016 -0.185602 0.222425c0.0504134,-0.0751457 0.103866,-0.148067 0.160098,-0.218685z"/>
    <path id="_422896920" class="fil9" d="M0.662606 1.57182l0.185602 -0.222425 0.671398 0.758843 -1.25359 0.278039c0.0950315,-0.291311 0.229209,-0.564929 0.396591,-0.814457z"/>
    <path id="_422897328" class="fil2" d="M0.17702 3.55273l0 0 -0.0699488 -0.294996c0.0101535,-0.219339 0.0417362,-0.433051 0.0925512,-0.639213l1.24765 0.689331 -1.27025 0.244878z"/>
    <path id="_422897280" class="fil10" d="M0.206906 4.23799l1.24036 -0.930138 -0.569512 2.23293c-0.313394,-0.37313 -0.546094,-0.816291 -0.67085,-1.3028z"/>
    <path id="_422897064" class="fil11" d="M0.120823 3.75533l0.0561969 -0.202602 1.27025 -0.244878 -1.24036 0.930138c-0.0401811,-0.156705 -0.0691693,-0.31789 -0.0860827,-0.482657z"/>
    <polygon id="_422896704" class="fil12" points="2.78989,4.64199 1.44727,3.30785 2.33539,3.05079 "/>
    <polygon id="_422897160" class="fil13" points="2.33539,3.05079 1.51961,2.10824 2.08771,1.12905 "/>
    <polygon id="_422896752" class="fil14" points="1.44727,3.30785 1.51961,2.10824 2.33539,3.05079 "/>
    <path id="_422896992" class="fil15" d="M4.66968 2.62236l-0.660996 -1.18727 1.14087 -0.840169c0.0476378,0.0294094 0.0944528,0.0600157 0.140449,0.0917323l-0.620323 1.9357z"/>
    <path id="_422897136" class="fil16" d="M0.848209 1.34939l0.0138504 -0.0449528c0.166303,-0.200961 0.355913,-0.381909 0.56465,-0.538787l0.661004 0.363394 -1.2395 0.220346z"/>
    <polygon id="_422896392" class="fil17" points="1.51961,2.10824 1.51961,2.10824 0.848209,1.34939 2.08771,1.12905 "/>
    <path id="_422896488" class="fil7" d="M2.08771 1.12905l-0.661004 -0.363394c0.201051,-0.151094 0.419937,-0.279669 0.652819,-0.38235l0.00818504 0.745744z"/>
    <polygon id="_422895864" class="fil18" points="1.96375,5.71923 1.96375,5.71923 1.44727,3.30785 2.78989,4.64199 "/>
    <polygon id="_422896464" class="fil19" points="4.34954,4.32376 3.48196,3.73628 4.66968,2.62236 "/>
    <path id="_422895888" class="fil20" d="M1.8742 6.34421l0.0895472 -0.624984 0.60222 0.894453c-0.242614,-0.064126 -0.474323,-0.155039 -0.691768,-0.269469z"/>
    <polygon id="_422896368" class="fil21" points="3.48196,3.73628 4.00868,1.43509 4.66968,2.62236 "/>
    <path id="_422896344" class="fil7" d="M2.08771 1.12905l0 0 -0.00818504 -0.745744c0.115445,-0.0508937 0.23428,-0.0954921 0.356181,-0.133154l1.08752 0.230087 -1.43552 0.648811z"/>
    <polygon id="_422896032" class="fil5" points="2.78989,4.64199 2.78989,4.64199 2.33539,3.05079 3.48196,3.73628 "/>
    <polygon id="_422896320" class="fil22" points="3.62652,6.66162 1.96375,5.71923 2.78989,4.64199 "/>
    <path id="_422895960" class="fil23" d="M2.56597 6.61368l-0.60222 -0.894453 1.66277 0.94239 -0.117512 0.060248c-0.0317913,0.000905512 -0.0636693,0.00147244 -0.0956772,0.00147244 -0.292925,0 -0.576886,-0.0382283 -0.847362,-0.109657z"/>
    <polygon id="_422895768" class="fil14" points="3.48196,3.73628 3.48196,3.73628 2.33539,3.05079 4.00868,1.43509 "/>
    <polygon id="_422895408" class="fil3" points="2.33539,3.05079 2.33539,3.05079 2.08771,1.12905 4.00868,1.43509 "/>
    <polygon id="_422895528" class="fil0" points="4.00868,1.43509 2.08771,1.12905 3.52323,0.480236 "/>
    <path id="_422895144" class="fil24" d="M3.50901 6.72187l0.117512 -0.060248 0.0260551 0.0530433c-0.0475906,0.00339764 -0.0954409,0.00583858 -0.143567,0.00720472z"/>
    <polygon id="_422895072" class="fil25" points="3.62652,6.66162 3.62652,6.66162 2.78989,4.64199 4.25661,6.29452 "/>
    <polygon id="_422895624" class="fil22" points="4.25661,6.29452 4.25661,6.29452 2.78989,4.64199 4.34954,4.32376 "/>
    <path id="_422895288" class="fil26" d="M3.65257 6.71466l-0.0260551 -0.0530433 0.630087 -0.367094 -0.0383504 0.330047c-0.183016,0.0457244 -0.372024,0.0762559 -0.565681,0.0900906z"/>
    <polygon id="_422895816" class="fil18" points="2.78989,4.64199 3.48196,3.73628 4.34954,4.32376 "/>
    <path id="_422895240" class="fil16" d="M4.00868 1.43509l0 0 -0.485449 -0.954858 1.35448 -0.0359213c0.0931772,0.0460433 0.183878,0.096311 0.271843,0.15061l-1.14087 0.840169z"/>
    <polygon id="_422895192" class="fil23" points="4.25661,6.29452 4.34954,4.32376 5.32036,4.96022 "/>
    <path id="_422895672" class="fil1" d="M3.52323 0.480236l0 0 -1.08752 -0.230087c0.0435709,-0.0134488 0.0875669,-0.0259252 0.131882,-0.0376063l2.1773 0.169776c0.0448071,0.0197126 0.0890827,0.0403819 0.132823,0.0619961l-1.35448 0.0359213z"/>
    <path id="_422894544" class="fil27" d="M5.77474 5.73247l-0.454386 -0.772244 0.671232 -0.734311 0.0965079 1.13721c-0.0954488,0.130697 -0.200201,0.254146 -0.313354,0.369346z"/>
    <polygon id="_422894328" class="fil28" points="5.32036,4.96022 5.32036,4.96022 4.34954,4.32376 5.99159,4.22591 "/>
    <path id="_422894664" class="fil2" d="M5.99159 4.22591l-1.32191 -1.60355 1.41272 -1.16664c0.0535591,0.0728976 0.104224,0.148043 0.151787,0.225315l-0.242594 2.54488z"/>
    <path id="_422894304" class="fil17" d="M4.66968 2.62236l0.620323 -1.9357c0.305126,0.210409 0.573138,0.470685 0.792398,0.769063l-1.41272 1.16664z"/>
    <path id="_422894976" class="fil24" d="M4.96144 6.33947l-0.704839 -0.0449488 1.06375 -1.3343 0.454386 0.772244c-0.237354,0.241614 -0.511441,0.446969 -0.813299,0.607004z"/>
    <polygon id="_422894400" class="fil10" points="4.34954,4.32376 4.66968,2.62236 5.99159,4.22591 "/>
    <path id="_422894808" class="fil29" d="M4.21826 6.62457l0.0383504 -0.330047 0.704839 0.0449488c-0.232661,0.123339 -0.481748,0.219772 -0.743189,0.285098z"/>
    <path id="_422894760" class="fil30" d="M3.91797 0.141555l-1.12472 0.0200118c0.20089,-0.0380748 0.408114,-0.0582441 0.620079,-0.0582441 0.171575,0 0.340098,0.013063 0.504638,0.0382323z"/>
    <path id="_422894424" class="fil1" d="M4.74489 0.382319l-2.1773 -0.169776c0.0742283,-0.019563 0.1495,-0.0365197 0.225661,-0.0509764l1.12472 -0.0200118c0.28972,0.0443858 0.567028,0.126425 0.826917,0.240764z"/>
    <path id="_422894784" class="fil31" d="M5.99159 4.22591l0.242594 -2.54488c0.303311,0.492858 0.480957,1.07121 0.488626,1.69056l-0.73122 0.854323z"/>
    <path id="_422893680" class="fil32" d="M5.99159 4.22591l0.73122 -0.854323c0.000173228,0.0139134 0.000527559,0.0277835 0.000527559,0.0417402 0,0.224079 -0.0223976,0.442909 -0.0648386,0.654492l-0.666909 0.158091z"/>
    <path id="_422893944" class="fil20" d="M6.0881 5.36312l-0.0965079 -1.13721 0.48835 0.434898c-0.102228,0.250925 -0.234264,0.486508 -0.391843,0.702311z"/>
    <path id="_422893920" class="fil19" d="M6.47994 4.66081l-0.48835 -0.434898 0.666909 -0.158091c-0.0412126,0.20515 -0.10137,0.403433 -0.178559,0.592988z"/>
   </g>
   <path id="_422894184" class="fil33" d="M3.41333 0c0.942551,0 1.79589,0.382055 2.41358,0.999752 0.617697,0.617693 0.999752,1.47103 0.999752,2.41358 0,0.942551 -0.382055,1.79589 -0.999752,2.41358 -0.617693,0.617697 -1.47103,0.999752 -2.41358,0.999752 -0.942551,0 -1.79589,-0.382055 -2.41358,-0.999752 -0.617697,-0.617693 -0.999752,-1.47103 -0.999752,-2.41358 0,-0.942551 0.382055,-1.79589 0.999752,-2.41358 0.617693,-0.617697 1.47103,-0.999752 2.41358,-0.999752zm2.26731 1.14602c-0.580248,-0.580248 -1.38187,-0.939146 -2.26731,-0.939146 -0.885445,0 -1.68707,0.358898 -2.26731,0.939146 -0.580248,0.580248 -0.939146,1.38187 -0.939146,2.26731 0,0.885445 0.358898,1.68707 0.939146,2.26731 0.580248,0.580248 1.38187,0.939146 2.26731,0.939146 0.885445,0 1.68707,-0.358898 2.26731,-0.939146 0.580248,-0.580248 0.939146,-1.38187 0.939146,-2.26731 0,-0.885445 -0.358898,-1.68707 -0.939146,-2.26731z"/>
  </g>
  <path class="fil34" d="M5.03304 1.67669c0.216059,0.0124646 0.319776,0.108866 0.360268,0.218429 0.0131417,0.0355512 0.0190039,0.0724409 0.0194961,0.10824 0.00290945,0.032 -0.00668898,0.0822677 -0.0160197,0.112563 -0.0269882,0.0875906 -0.0898898,0.14874 -0.150181,0.146165 -0.103165,-0.00440945 -0.115559,0.0283504 -0.130402,0.0676102 -0.0334291,0.0884134 -0.0724173,0.19152 -0.295772,0.239567 -0.147343,0.0316929 -0.20239,0.0252205 -0.242815,0.0204724 -0.0353504,-0.00414961 -0.0519803,-0.0061063 -0.261228,0.0970315 -0.194476,0.0958543 -0.305961,0.181157 -0.386728,0.290673 -0.0829409,0.112461 -0.139197,0.256882 -0.219795,0.465071 -0.00688189,0.0177717 0.00209449,0.0451457 0.0126535,0.0773386 0.014622,0.0445866 0.0310591,0.0946969 0.0310591,0.162193 0,0.0893071 -0.00629134,0.158256 -0.0112047,0.212205 -0.00993701,0.108992 -0.0120315,0.131961 0.127346,0.245051 0.0985118,0.0799331 0.190421,0.218417 0.269421,0.337453 0.0578898,0.0872244 0.107634,0.162177 0.124693,0.17315 0.00932283,0.00316929 0.0182205,0.00810236 0.0261929,0.0148386 0.14772,0.124768 -0.211827,0.33978 -0.688287,0.113709 -0.0282126,-0.0133858 -0.0538898,-0.0255709 -0.0747008,-0.0345787 -0.0171654,0.0815945 -0.0479252,0.157114 -0.108728,0.23176 -0.0724803,0.0889843 -0.186177,0.173307 -0.370098,0.261063 -0.10748,0.0512795 -0.215677,0.088563 -0.312866,0.101811 -0.205287,0.0279803 -0.260382,-0.0208189 -0.345602,-0.184083 -0.069252,-0.132669 -0.186469,-0.35722 -0.332902,-0.512693 -0.142476,-0.151272 -0.317701,-0.233654 -0.504283,-0.0611496 -0.0196654,0.0209055 -0.0498386,0.0306929 -0.079563,0.0229449 -0.153925,-0.0401181 0.0344567,-0.28624 0.0702874,-0.33613 0.0516339,-0.0719016 0.102457,-0.142677 0.104315,-0.218224 0.00212205,-0.0864921 0.0289016,-0.171051 0.0560787,-0.256874 0.0338425,-0.10687 0.0684213,-0.216071 0.0424213,-0.301642 -0.0388583,-0.12789 -0.0179567,-0.231311 -0.00053937,-0.317516 0.00970866,-0.0480472 0.0178543,-0.0883504 0.0091378,-0.106531 -0.0550551,-0.114803 -0.0534882,-0.19952 -0.0520748,-0.276433 0.0011063,-0.0599055 0.00208661,-0.113087 -0.0443898,-0.17037 -0.0109528,-0.0135039 -0.018811,-0.0280866 -0.023874,-0.0435787 -0.0244409,-0.0747874 0.0211535,-0.160531 0.0851378,-0.236181 0.0517126,-0.0611417 0.11661,-0.118665 0.155055,-0.149854 0.0243701,-0.0197677 0.0467126,-0.0336575 0.0562874,-0.0367835 0.073,-0.0238661 0.0730354,-0.0632874 0.0564567,-0.113992 -0.00595276,-0.0182087 -0.0145039,-0.0405906 -0.0234213,-0.0639409 -0.0137913,-0.0360984 -0.148268,-0.351457 0.017811,-0.350307 0.00588976,-0.00249606 0.0131654,-0.00524803 0.0243543,-0.00819685 0.0563622,-0.0148504 0.108138,-0.0302283 0.157217,-0.0448031 0.218087,-0.0647638 0.386681,-0.114831 0.649339,-0.0455079 0.0639724,0.0168858 0.125543,0.0348583 0.181504,0.0511929 0.249846,0.072937 0.373358,0.108992 0.640795,-0.0291102 0.201886,-0.10426 0.372433,-0.0672677 0.547949,-0.0292047 0.0873228,0.018937 0.176063,0.0381811 0.264492,0.0362598 0.209445,-0.00454724 0.327669,0.0402283 0.428567,0.0784409 0.0550591,0.0208543 0.103996,0.0393898 0.157142,0.0424528zm-0.14076 0.135567l0.250791 0.296004c0.0258346,-0.00583071 0.0538622,-0.00858661 0.0840472,-0.0087126 0.0021063,-0.00306693 0.00411811,-0.00657874 0.00596457,-0.0101969l-0.21263 -0.250972c-0.0454291,-0.00296457 -0.0869488,-0.0128701 -0.128173,-0.026122zm-2.74781 0.351571l1.43805 1.69737c0.00337402,-0.0389094 0.00611811,-0.0773858 0.00762992,-0.11615l-1.43445 -1.69313c0.00494882,0.0403228 0.00110236,0.0780472 -0.0112283,0.111909zm0.0354961 -0.427488l1.3891 1.62061c0.0108346,-0.0281457 0.021815,-0.0567953 0.0330984,-0.0856457l-1.33721 -1.56008c-0.0179843,0.00524016 -0.0364528,0.0107244 -0.0555276,0.0163898 -0.0098189,0.00291339 -0.0196378,0.00582677 -0.0294567,0.00872441zm0.330295 -0.0780472l1.18453 1.39813c0.0129409,-0.0262165 0.0265079,-0.0519567 0.0408228,-0.0769724l-1.1204 -1.32243c-0.0362087,-0.00234252 -0.070815,-0.00173228 -0.104953,0.00127953zm0.417756 0.0692008l0.923323 1.08982c0.0182874,-0.0202717 0.0373622,-0.0394646 0.0571417,-0.0577165l-0.841531 -0.993276c-0.0371142,-0.00951969 -0.0762795,-0.0205433 -0.118295,-0.0328071l-0.0206378 -0.00601969zm0.469398 0.0724134l0.696949 0.822626c0.0233976,-0.0140906 0.0472795,-0.0276102 0.0715551,-0.0407008l-0.677524 -0.799701c-0.0311378,0.00827165 -0.0612638,0.0141299 -0.0909803,0.0177756zm0.331402 -0.11663l0.665618 0.785646c0.0268622,-0.0113425 0.0542244,-0.0213622 0.0816693,-0.0287598l-0.665504 -0.785512c-0.0267598,0.00641732 -0.0539055,0.0157402 -0.0817835,0.028626zm0.38576 -0.0125984l0.633669 0.747937c0.012622,-0.00246063 0.0252992,-0.0051378 0.0380866,-0.00788583 0.015,-0.00322835 0.0324567,-0.00749606 0.0501811,-0.0130866l-0.593118 -0.700067c-0.0316142,-0.00594094 -0.063189,-0.012689 -0.0949213,-0.0195669 -0.0114528,-0.00248425 -0.0227402,-0.00493701 -0.0338976,-0.00733071zm0.400028 0.0475551l0.456224 0.538492c0.0123228,-0.0287441 0.0270394,-0.0529606 0.0441024,-0.0731063l-0.383945 -0.453177c-0.0369291,-0.00673622 -0.0746969,-0.0107598 -0.116382,-0.0122087zm-1.49061 2.67813l0.0274961 0.085185 0.0895787 -0.000169291 0.0833858 -0.00015748 -0.067563 0.0488819 -0.0725394 0.0524882 0.0278386 0.0851102 0.0259016 0.079189 -0.0673543 -0.0491299 -0.072374 -0.0527913 -0.072378 0.0527913 -0.0673465 0.049126 0.0258976 -0.079185 0.0278346 -0.0851102 -0.0725354 -0.0524882 -0.0580472 -0.042 -0.0580433 0.042 -0.0725394 0.0524882 0.0278346 0.0851102 0.0259016 0.079189 -0.0673504 -0.0491299 -0.072374 -0.0527913 -0.0723819 0.0527913 -0.0673425 0.049126 0.0258937 -0.079185 0.0278346 -0.0851102 -0.0725354 -0.0524882 -0.0675551 -0.0488819 0.083374 0.00015748 0.0895787 0.000169291 0.0275 -0.085185 0.0256339 -0.0793976 0.0256299 0.0793976 0.0274961 0.085185 0.0895787 -0.000169291 0.0644055 -0.000122047 -5.11811e-005 -3.54331e-005 0.00951181 1.5748e-005 0.00951575 -1.5748e-005 -5.11811e-005 3.54331e-005 0.0644016 0.000122047 0.0895827 0.000169291 0.0274961 -0.085185 0.0256299 -0.0793976 0.0256299 0.0793976zm-0.838169 -1.67071l0.0275 0.0851811 0.0895748 -0.000165354 0.0833858 -0.00015748 -0.067563 0.0488819 -0.0725394 0.0524882 0.0278386 0.0851102 0.0259016 0.079189 -0.0673543 -0.0491299 -0.072374 -0.0527953 -0.072378 0.0527953 -0.0673465 0.0491299 0.0258976 -0.079189 0.0278307 -0.0851102 -0.0725315 -0.0524882 -0.0675591 -0.0488819 0.083378 0.00015748 0.0895787 0.000165354 0.0275 -0.0851811 0.0256299 -0.0793937 0.0256299 0.0793937zm0 0.421894l0.0275 0.085189 0.0895748 -0.000169291 0.0363543 -7.08661e-005 -0.000122047 -8.66142e-005 0.0235748 4.33071e-005 0.0235787 -4.33071e-005 -0.000125984 8.66142e-005 0.0363465 7.08661e-005 0.0895787 0.000169291 0.0275 -0.085189 0.0256339 -0.0793937 0.0256299 0.0793937 0.0274961 0.085189 0.0895787 -0.000169291 0.0833819 -0.00015748 -0.0675591 0.0488819 -0.0725394 0.0524882 0.0278346 0.0851102 0.0259016 0.079189 -0.0673504 -0.0491299 -0.072374 -0.0527953 -0.0723819 0.0527953 -0.0673425 0.0491299 0.0258937 -0.079189 0.0278346 -0.0851102 -0.0725354 -0.0524882 -0.0439803 -0.0318228 -0.0439843 0.0318228 -0.0725394 0.0524882 0.0278386 0.0851102 0.0259016 0.079189 -0.0673543 -0.0491299 -0.072374 -0.0527953 -0.072378 0.0527953 -0.0673465 0.0491299 0.0258976 -0.079189 0.0278307 -0.0851102 -0.0725315 -0.0524882 -0.0675591 -0.0488819 0.083378 0.00015748 0.0895787 0.000169291 0.0275 -0.085189 0.0256299 -0.0793937 0.0256299 0.0793937zm0 0.416276l0.0275 0.085185 0.0895748 -0.000169291 0.0363543 -7.08661e-005 -0.000122047 -8.66142e-005 0.0235748 4.33071e-005 0.0235787 -4.33071e-005 -0.000125984 8.66142e-005 0.0363465 7.08661e-005 0.0895787 0.000169291 0.0275 -0.085185 0.0256339 -0.0793976 0.0256299 0.0793976 0.0274961 0.085185 0.0895787 -0.000169291 0.0644055 -0.000122047 -5.11811e-005 -3.54331e-005 0.00951181 1.1811e-005 0.00951575 -1.1811e-005 -5.11811e-005 3.54331e-005 0.0644016 0.000122047 0.0895827 0.000169291 0.0274961 -0.085185 0.0256299 -0.0793976 0.0256299 0.0793976 0.0274961 0.085185 0.0895787 -0.000169291 0.0833858 -0.00015748 -0.067563 0.0488819 -0.0725394 0.0524882 0.0278386 0.0851142 0.0259016 0.079185 -0.0673543 -0.0491299 -0.072374 -0.0527992 -0.072378 0.0527992 -0.0673465 0.049126 0.0258976 -0.0791811 0.0278346 -0.0851142 -0.0725354 -0.0524882 -0.0580472 -0.042 -0.0580433 0.042 -0.0725394 0.0524882 0.0278346 0.0851142 0.0259016 0.079185 -0.0673504 -0.0491299 -0.072374 -0.0527992 -0.0723819 0.0527992 -0.0673425 0.049126 0.0258937 -0.0791811 0.0278346 -0.0851142 -0.0725354 -0.0524882 -0.0439803 -0.0318268 -0.0439843 0.0318268 -0.0725394 0.0524882 0.0278386 0.0851142 0.0259016 0.079185 -0.0673543 -0.0491299 -0.072374 -0.0527992 -0.072378 0.0527992 -0.0673465 0.049126 0.0258976 -0.0791811 0.0278307 -0.0851142 -0.0725315 -0.0524882 -0.0675591 -0.0488819 0.083378 0.00015748 0.0895787 0.000169291 0.0275 -0.085185 0.0256299 -0.0793976 0.0256299 0.0793976zm0 0.416276l0.0275 0.0851811 0.0895748 -0.000169291 0.0363543 -7.08661e-005 -0.000122047 -9.05512e-005 0.0235748 4.33071e-005 0.0235787 -4.33071e-005 -0.000125984 9.05512e-005 0.0363465 7.08661e-005 0.0895787 0.000169291 0.0275 -0.0851811 0.0256339 -0.0794055 0.0256299 0.0794055 0.0274961 0.0851811 0.0895787 -0.000169291 0.0644055 -0.000122047 -5.11811e-005 -3.93701e-005 0.00951181 1.9685e-005 0.00951575 -1.9685e-005 -5.11811e-005 3.93701e-005 0.0644016 0.000122047 0.0895827 0.000169291 0.0274961 -0.0851811 0.0256299 -0.0794055 0.0256299 0.0794055 0.0274961 0.0851811 0.0895787 -0.000169291 0.0833858 -0.000161417 -0.067563 0.0488858 -0.0725394 0.0524882 0.0278386 0.0851102 0.0259016 0.079189 -0.0673543 -0.0491299 -0.072374 -0.0527953 -0.072378 0.0527953 -0.0673465 0.0491299 0.0258976 -0.079189 0.0278346 -0.0851102 -0.0725354 -0.0524882 -0.0580472 -0.042 -0.0580433 0.042 -0.0725394 0.0524882 0.0278346 0.0851102 0.0259016 0.079189 -0.0673504 -0.0491299 -0.072374 -0.0527953 -0.0723819 0.0527953 -0.0673425 0.0491299 0.0258937 -0.079189 0.0278346 -0.0851102 -0.0725354 -0.0524882 -0.0439803 -0.0318268 -0.0439843 0.0318268 -0.0725394 0.0524882 0.0278386 0.0851102 0.0259016 0.079189 -0.0673543 -0.0491299 -0.072374 -0.0527953 -0.072378 0.0527953 -0.0673465 0.0491299 0.0258976 -0.079189 0.0278307 -0.0851102 -0.0725315 -0.0524882 -0.0675591 -0.0488858 0.083378 0.000161417 0.0895787 0.000169291 0.0275 -0.0851811 0.0256299 -0.0794055 0.0256299 0.0794055z"/>
 </g>
</svg>
