<?xml version="1.0" encoding="UTF-8"?>
<!DOCTYPE svg PUBLIC "-//W3C//DTD SVG 1.1//EN" "http://www.w3.org/Graphics/SVG/1.1/DTD/svg11.dtd">
<!-- Creator: CorelDRAW -->
<svg xmlns="http://www.w3.org/2000/svg" xml:space="preserve" width="6.82666in" height="6.82666in" style="shape-rendering:geometricPrecision; text-rendering:geometricPrecision; image-rendering:optimizeQuality; fill-rule:evenodd; clip-rule:evenodd"
viewBox="0 0 6.82666 6.82666"
 xmlns:xlink="http://www.w3.org/1999/xlink">
 <defs>
  <style type="text/css">
   <![CDATA[
    .fil2 {fill:none}
    .fil0 {fill:#424242}
    .fil1 {fill:#FFFFFE;fill-rule:nonzero}
   ]]>
  </style>
 </defs>
 <rect class="fil0" width="6.82666" height="6.82666"/>
 <g id="Layer_x0020_1">
  <metadata id="CorelCorpID_0Corel-Layer"/>
  <g id="_508635376">
   <path id="_508603672" class="fil1" d="M3.41333 1.58837c0.503933,0 0.960177,0.204272 1.29043,0.534528 0.330256,0.330256 0.534528,0.7865 0.534528,1.29043 0,0.503933 -0.204272,0.960177 -0.534528,1.29043 -0.330256,0.330256 -0.7865,0.534528 -1.29043,0.534528 -0.503933,0 -0.960177,-0.204272 -1.29043,-0.534528 -0.330256,-0.330256 -0.534528,-0.7865 -0.534528,-1.29043 0,-0.503933 0.204272,-0.960177 0.534528,-1.29043 0.330256,-0.330256 0.7865,-0.534528 1.29043,-0.534528zm1.1396 0.685362c-0.291638,-0.291638 -0.694551,-0.472024 -1.1396,-0.472024 -0.445047,0 -0.847961,0.180386 -1.1396,0.472024 -0.291638,0.291638 -0.472024,0.694551 -0.472024,1.1396 0,0.445047 0.180386,0.847961 0.472024,1.1396 0.291638,0.291638 0.694551,0.472024 1.1396,0.472024 0.445047,0 0.847961,-0.180386 1.1396,-0.472024 0.291638,-0.291638 0.472024,-0.694551 0.472024,-1.1396 0,-0.445047 -0.180386,-0.847961 -0.472024,-1.1396z"/>
   <path id="_508603264" class="fil1" d="M3.41333 0.892028c0.155445,0 0.277874,0.0925945 0.398587,0.18389 0.0735945,0.0556614 0.146406,0.110728 0.210173,0.128268 0.066563,0.018311 0.158346,0.00676772 0.249724,-0.00472441 0.14461,-0.018185 0.288445,-0.0362717 0.414063,0.037311 0.126224,0.0739409 0.180272,0.208661 0.234173,0.343028 0.0334646,0.0834252 0.0668701,0.166697 0.113492,0.213319 0.0466181,0.0466181 0.12989,0.0800236 0.213315,0.113488 0.13437,0.0539016 0.269091,0.107949 0.343031,0.234173 0.0735906,0.125622 0.0554961,0.269457 0.037311,0.414063 -0.0114921,0.091378 -0.0230354,0.183161 -0.00472441,0.249724 0.0175394,0.0637638 0.0726063,0.136575 0.128264,0.210169 0.0912992,0.120717 0.183894,0.243146 0.183894,0.398594 0,0.155445 -0.0925945,0.277874 -0.18389,0.398587 -0.0556614,0.0735945 -0.110728,0.146406 -0.128268,0.210173 -0.018311,0.066563 -0.00676772,0.158346 0.00472441,0.249724 0.018185,0.14461 0.0362717,0.288445 -0.037311,0.414063 -0.0739409,0.126224 -0.208661,0.180272 -0.343028,0.234173 -0.0834252,0.0334646 -0.166697,0.0668701 -0.213319,0.113492 -0.0466181,0.0466181 -0.0800236,0.12989 -0.113488,0.213315 -0.0539016,0.13437 -0.107949,0.269091 -0.234173,0.343031 -0.125622,0.0735906 -0.269457,0.0554961 -0.414063,0.037311 -0.091378,-0.0114921 -0.183161,-0.0230354 -0.249724,-0.00472441 -0.0637638,0.0175394 -0.136575,0.0726063 -0.210169,0.128264 -0.120717,0.0912992 -0.243146,0.183894 -0.398594,0.183894 -0.155445,0 -0.277874,-0.0925945 -0.398587,-0.18389 -0.0735945,-0.0556614 -0.146406,-0.110728 -0.210173,-0.128268 -0.066563,-0.018311 -0.158346,-0.00676772 -0.249724,0.00472441 -0.14461,0.018185 -0.288445,0.0362717 -0.414063,-0.037311 -0.126224,-0.0739409 -0.180272,-0.208661 -0.234173,-0.343028 -0.0334646,-0.0834252 -0.0668701,-0.166697 -0.113492,-0.213319 -0.0466181,-0.0466181 -0.12989,-0.0800236 -0.213315,-0.113488 -0.13437,-0.0539016 -0.269091,-0.107949 -0.343031,-0.234173 -0.0735906,-0.125622 -0.0554961,-0.269457 -0.037311,-0.414063 0.0114921,-0.091378 0.0230354,-0.183161 0.00472441,-0.249724 -0.0175394,-0.0637638 -0.0726063,-0.136575 -0.128264,-0.210169 -0.0912992,-0.120717 -0.183894,-0.243146 -0.183894,-0.398594 0,-0.155445 0.0925945,-0.277874 0.18389,-0.398587 0.0556614,-0.0735945 0.110728,-0.146406 0.128268,-0.210173 0.018311,-0.066563 0.00676772,-0.158346 -0.00472441,-0.249724 -0.018185,-0.14461 -0.0362717,-0.288445 0.037311,-0.414063 0.0739409,-0.126224 0.208661,-0.180272 0.343028,-0.234173 0.0834252,-0.0334646 0.166697,-0.0668701 0.213319,-0.113492 0.0466181,-0.0466181 0.0800236,-0.12989 0.113488,-0.213315 0.0539016,-0.13437 0.107949,-0.269091 0.234173,-0.343031 0.125622,-0.0735906 0.269457,-0.0554961 0.414063,-0.037311 0.091378,0.0114921 0.183161,0.0230354 0.249724,0.00472441 0.0637638,-0.0175394 0.136575,-0.0726063 0.210169,-0.128264 0.120717,-0.0912992 0.243146,-0.183894 0.398594,-0.183894zm0.270256 0.35389c-0.0922638,-0.0697795 -0.185839,-0.140551 -0.270256,-0.140551 -0.0844173,0 -0.177996,0.0707756 -0.270264,0.140555 -0.0893228,0.0675551 -0.177697,0.13439 -0.282665,0.163264 -0.10674,0.0293622 -0.219319,0.0152047 -0.331394,0.00111024 -0.108953,-0.0137008 -0.217323,-0.0273346 -0.280724,0.00980709 -0.0632008,0.0370197 -0.10374,0.138079 -0.144173,0.238866 -0.0418465,0.104323 -0.0836181,0.208445 -0.160157,0.284984 -0.0765433,0.0765433 -0.180665,0.118315 -0.284988,0.160161 -0.100783,0.0404291 -0.201843,0.0809724 -0.238862,0.144173 -0.0371378,0.0633976 -0.0235079,0.171768 -0.00980709,0.280724 0.0140945,0.112075 0.028252,0.224654 -0.00111024,0.331394 -0.028874,0.104969 -0.0957087,0.193343 -0.163268,0.282669 -0.0697795,0.0922638 -0.140551,0.185839 -0.140551,0.270256 0,0.0844173 0.0707756,0.177996 0.140555,0.270264 0.0675551,0.0893228 0.13439,0.177697 0.163264,0.282665 0.0293622,0.10674 0.0152047,0.219319 0.00111024,0.331394 -0.0137008,0.108953 -0.0273346,0.217323 0.00980709,0.280724 0.0370197,0.0632008 0.138079,0.10374 0.238866,0.144173 0.104323,0.0418465 0.208445,0.0836181 0.284984,0.160157 0.0765433,0.0765433 0.118315,0.180665 0.160161,0.284988 0.0404291,0.100783 0.0809724,0.201843 0.144173,0.238862 0.0633976,0.0371378 0.171768,0.0235079 0.280724,0.00980709 0.112075,-0.0140945 0.224654,-0.028252 0.331394,0.00111024 0.104969,0.028874 0.193343,0.0957087 0.282669,0.163268 0.0922638,0.0697795 0.185839,0.140551 0.270256,0.140551 0.0844173,0 0.177996,-0.0707756 0.270264,-0.140555 0.0893228,-0.0675551 0.177697,-0.13439 0.282665,-0.163264 0.10674,-0.0293622 0.219319,-0.0152047 0.331394,-0.00111024 0.108953,0.0137008 0.217323,0.0273346 0.280724,-0.00980709 0.0632008,-0.0370197 0.10374,-0.138079 0.144173,-0.238866 0.0418465,-0.104323 0.0836181,-0.208445 0.160157,-0.284984 0.0765433,-0.0765433 0.180665,-0.118315 0.284988,-0.160161 0.100783,-0.0404291 0.201843,-0.0809724 0.238862,-0.144173 0.0371378,-0.0633976 0.0235079,-0.171768 0.00980709,-0.280724 -0.0140945,-0.112075 -0.028252,-0.224654 0.00111024,-0.331394 0.028874,-0.104969 0.0957087,-0.193343 0.163268,-0.282669 0.0697795,-0.0922638 0.140551,-0.185839 0.140551,-0.270256 0,-0.0844173 -0.0707756,-0.177996 -0.140555,-0.270264 -0.0675551,-0.0893228 -0.13439,-0.177697 -0.163264,-0.282665 -0.0293622,-0.10674 -0.0152047,-0.219319 -0.00111024,-0.331394 0.0137008,-0.108953 0.0273346,-0.217323 -0.00980709,-0.280724 -0.0370197,-0.0632008 -0.138079,-0.10374 -0.238866,-0.144173 -0.104323,-0.0418465 -0.208445,-0.0836181 -0.284984,-0.160157 -0.0765433,-0.0765433 -0.118315,-0.180665 -0.160161,-0.284988 -0.0404291,-0.100783 -0.0809724,-0.201843 -0.144173,-0.238862 -0.0633976,-0.0371378 -0.171768,-0.0235079 -0.280724,-0.00980709 -0.112075,0.0140945 -0.224654,0.028252 -0.331394,-0.00111024 -0.104969,-0.028874 -0.193343,-0.0957087 -0.282669,-0.163268z"/>
   <path id="_508603624" class="fil1" d="M2.36656 3.75996l-0.247768 -0.693264 0.15189 0 0.175291 0.513126 0.169807 -0.513126 0.1485 0 -0.248252 0.693264 -0.149469 0zm0.440819 -0.342354c0,-0.0707008 0.0104921,-0.129937 0.0316339,-0.177878 0.0158189,-0.035185 0.0372874,-0.0669843 0.0645669,-0.0950709 0.0272795,-0.0279252 0.0571378,-0.048748 0.0895827,-0.0623031 0.0432598,-0.0184016 0.0929724,-0.0274409 0.149469,-0.0274409 0.102173,0 0.183846,0.0316378 0.245185,0.0950709 0.0613346,0.0632756 0.0920039,0.151406 0.0920039,0.264232 0,0.11202 -0.0305079,0.199504 -0.0913583,0.26278 -0.0608543,0.0631102 -0.142205,0.094748 -0.243894,0.094748 -0.103142,0 -0.185142,-0.0314764 -0.245992,-0.0942638 -0.0608543,-0.0629528 -0.0911969,-0.14963 -0.0911969,-0.259874zm0.144138 -0.0046811c0,0.0784449 0.0182402,0.138008 0.0543976,0.17852 0.0363189,0.0405157 0.0823189,0.0606929 0.138169,0.0606929 0.055685,0 0.101528,-0.0200157 0.137362,-0.0603701 0.0356693,-0.040189 0.0535866,-0.100398 0.0535866,-0.18078 0,-0.0794134 -0.0174331,-0.138654 -0.0521339,-0.177878 -0.0348661,-0.0390591 -0.0811929,-0.0585906 -0.138815,-0.0585906 -0.0577874,0 -0.104272,0.0198543 -0.139622,0.0593976 -0.035189,0.0395472 -0.0529449,0.0991102 -0.0529449,0.179008zm0.793504 0.347035l0 -0.575917 -0.205638 0 0 -0.117346 0.550898 0 0 0.117346 -0.205154 0 0 0.575917 -0.140106 0zm0.43565 0l0 -0.693264 0.513937 0 0 0.117346 -0.373992 0 0 0.153661 0.348004 0 0 0.116705 -0.348004 0 0 0.188689 0.387228 0 0 0.116862 -0.527173 0z"/>
   <path id="_508635760" class="fil1" d="M1.88246 2.65711c-0.0589094,0 -0.106669,0.0477598 -0.106669,0.106669 0,0.0589094 0.0477598,0.106669 0.106669,0.106669l3.06174 0c0.0589094,0 0.106669,-0.0477598 0.106669,-0.106669 0,-0.0589094 -0.0477598,-0.106669 -0.106669,-0.106669l-3.06174 0z"/>
   <path id="_508635544" class="fil1" d="M1.83899 4.01749c-0.0589094,0 -0.106669,0.0477598 -0.106669,0.106669 0,0.0589094 0.0477598,0.106669 0.106669,0.106669l3.14869 0c0.0589094,0 0.106669,-0.0477598 0.106669,-0.106669 0,-0.0589094 -0.0477598,-0.106669 -0.106669,-0.106669l-3.14869 0z"/>
   <path id="_508635520" class="fil1" d="M2.25486 4.48003c-0.0589094,0 -0.106669,0.0477598 -0.106669,0.106669 0,0.0589094 0.0477598,0.106669 0.106669,0.106669l2.31694 0c0.0589094,0 0.106669,-0.0477598 0.106669,-0.106669 0,-0.0589094 -0.0477598,-0.106669 -0.106669,-0.106669l-2.31694 0z"/>
   <path id="_508635568" class="fil1" d="M3.46396 2.00243l0.0450276 0.139488 0.146705 -0.000283465 0.164709 -0.000314961 -0.133461 0.0965669 -0.118776 0.0859449 0.0455827 0.139382 0.0511575 0.156425 -0.133031 -0.0970512 -0.118539 -0.0864764 -0.118535 0.0864764 -0.133028 0.0970512 0.0511535 -0.156425 0.0455827 -0.139382 -0.118776 -0.0859449 -0.133457 -0.0965669 0.164705 0.000314961 0.146705 0.000283465 0.0450236 -0.139488 0.050626 -0.156835 0.050626 0.156835zm-0.0442953 0.208937l-0.00633071 -0.0196063 -0.00632677 0.0196063 -0.0119252 0.0369528 -0.0387008 -7.48031e-005 -0.0206969 -3.93701e-005 0.0167441 0.0121142 0.0314291 0.0227402 -0.0120512 0.0368425 -0.00647638 0.0198031 0.0167559 -0.0122244 0.031248 -0.0227953 0.031248 0.0227953 0.0167559 0.0122244 -0.00647638 -0.0198031 -0.0120512 -0.0368425 0.0314291 -0.0227402 0.0167441 -0.0121142 -0.0206929 3.93701e-005 -0.0387008 7.48031e-005 -0.0119252 -0.0369528z"/>
   <polygon id="_508635064" class="fil1" points="4.14696,2.27847 4.15789,2.3123 4.19357,2.31223 4.35828,2.31191 4.22482,2.40848 4.19598,2.42935 4.20706,2.4632 4.25822,2.61963 4.12518,2.52258 4.09634,2.50154 4.06749,2.52258 3.93446,2.61963 3.98562,2.4632 3.99669,2.42935 3.96786,2.40848 3.8344,2.31191 3.99911,2.31223 4.03479,2.3123 4.04571,2.27847 4.09634,2.12164 "/>
   <polygon id="_508635400" class="fil1" points="2.6678,2.27847 2.67872,2.3123 2.71441,2.31223 2.87912,2.31191 2.74565,2.40848 2.71682,2.42935 2.72789,2.4632 2.77906,2.61963 2.64602,2.52258 2.61717,2.50154 2.58833,2.52258 2.4553,2.61963 2.50645,2.4632 2.51753,2.42935 2.48869,2.40848 2.35524,2.31191 2.51994,2.31223 2.55563,2.3123 2.56655,2.27847 2.61717,2.12164 "/>
  </g>
 </g>
 <rect class="fil2" width="6.82666" height="6.82666"/>
</svg>
