<?xml version="1.0" encoding="UTF-8"?>
<!DOCTYPE svg PUBLIC "-//W3C//DTD SVG 1.1//EN" "http://www.w3.org/Graphics/SVG/1.1/DTD/svg11.dtd">
<!-- Creator: CorelDRAW -->
<svg xmlns="http://www.w3.org/2000/svg" xml:space="preserve" width="6.82666in" height="6.82666in" style="shape-rendering:geometricPrecision; text-rendering:geometricPrecision; image-rendering:optimizeQuality; fill-rule:evenodd; clip-rule:evenodd"
viewBox="0 0 6.82666 6.82666"
 xmlns:xlink="http://www.w3.org/1999/xlink">
 <defs>
  <style type="text/css">
   <![CDATA[
    .fil34 {fill:#544A59}
    .fil30 {fill:#A37BB8}
    .fil1 {fill:#A882BD}
    .fil7 {fill:#AB86BE}
    .fil16 {fill:#AE8CC1}
    .fil0 {fill:#B392C5}
    .fil8 {fill:#B494C5}
    .fil17 {fill:#B799C8}
    .fil15 {fill:#B99BCA}
    .fil9 {fill:#BA9CCA}
    .fil3 {fill:#BEA3CD}
    .fil13 {fill:#C1A6CF}
    .fil31 {fill:#C2A8D0}
    .fil6 {fill:#C4A9D1}
    .fil2 {fill:#C4ABD2}
    .fil32 {fill:#C6ADD4}
    .fil21 {fill:#C6AED4}
    .fil14 {fill:#C9B3D6}
    .fil11 {fill:#CBB4D7}
    .fil10 {fill:#CEBADA}
    .fil19 {fill:#D0BCDB}
    .fil12 {fill:#D1BDDC}
    .fil5 {fill:#D2BEDC}
    .fil18 {fill:#D4C1DD}
    .fil28 {fill:#D5C4DF}
    .fil4 {fill:#D6C5DF}
    .fil20 {fill:#D8C7E1}
    .fil22 {fill:#D9C9E2}
    .fil27 {fill:#DACAE3}
    .fil23 {fill:#DBCBE4}
    .fil25 {fill:#DCCDE4}
    .fil24 {fill:#E0D3E7}
    .fil26 {fill:#E2D5E9}
    .fil29 {fill:#E5DBEC}
    .fil33 {fill:#544A59;fill-rule:nonzero}
   ]]>
  </style>
 </defs>
 <g id="Layer_x0020_1">
  <metadata id="CorelCorpID_0Corel-Layer"/>
  <g id="_454752072">
   <path id="_454756488" class="fil0" d="M3.41333 0.103323c1.82806,0 3.31001,1.48194 3.31001,3.31001 0,1.82806 -1.48195,3.31001 -3.31001,3.31001 -1.82806,0 -3.31001,-1.48195 -3.31001,-3.31001 0,-1.82806 1.48194,-3.31001 3.31001,-3.31001z"/>
   <g>
    <path id="_454756704" class="fil1" d="M0.848209 1.34939l-0.00888189 -0.0168976c0.0075748,-0.00935827 0.0150591,-0.0187835 0.0227323,-0.0280551l-0.0138504 0.0449528z"/>
    <path id="_454756440" class="fil2" d="M0.103453 3.42352l0.0735669 0.129205 -0.0561969 0.202602c-0.0111969,-0.109118 -0.0170315,-0.219815 -0.0173701,-0.331807z"/>
    <path id="_454756824" class="fil3" d="M0.17702 3.55273l-0.0735669 -0.129205c-1.1811e-005,-0.00340551 -0.000129921,-0.00678346 -0.000129921,-0.0101929 0,-0.0521693 0.0013622,-0.10402 0.00374803,-0.155598l0.0699488 0.294996z"/>
    <path id="_454756416" class="fil4" d="M1.18754 5.86326l0.776205 -0.144028 -0.0895472 0.624984c-0.249323,-0.131201 -0.479984,-0.293083 -0.686657,-0.480957z"/>
    <path id="_454756176" class="fil5" d="M0.877756 5.54078l0.569512 -2.23293 0.51648 2.41138 -0.776205 0.144028c-0.110374,-0.10035 -0.213795,-0.208189 -0.309787,-0.322472z"/>
    <path id="_454755768" class="fil6" d="M1.44727 3.30785l-1.24765 -0.689331c0.0193661,-0.0785591 0.0415315,-0.156004 0.0663937,-0.232244l1.25359 -0.278039 -0.0723386 1.19961z"/>
    <path id="_454755816" class="fil7" d="M0.839327 1.3325l0.00888189 0.0168976 -0.0255039 0.00374016c0.00550394,-0.00690945 0.0110669,-0.0137717 0.016622,-0.0206378z"/>
    <path id="_454755744" class="fil8" d="M0.822705 1.35313l0.0255039 -0.00374016 -0.185602 0.222425c0.0504134,-0.0751457 0.103866,-0.148067 0.160098,-0.218685z"/>
    <path id="_454756032" class="fil9" d="M0.662606 1.57182l0.185602 -0.222425 0.671398 0.758843 -1.25359 0.278039c0.0950315,-0.291311 0.229209,-0.564929 0.396591,-0.814457z"/>
    <path id="_454756128" class="fil2" d="M0.17702 3.55273l0 0 -0.0699488 -0.294996c0.0101535,-0.219339 0.0417362,-0.433051 0.0925512,-0.639213l1.24765 0.689331 -1.27025 0.244878z"/>
    <path id="_454755552" class="fil10" d="M0.206906 4.23799l1.24036 -0.930138 -0.569512 2.23293c-0.313394,-0.37313 -0.546094,-0.816291 -0.67085,-1.3028z"/>
    <path id="_454756296" class="fil11" d="M0.120823 3.75533l0.0561969 -0.202602 1.27025 -0.244878 -1.24036 0.930138c-0.0401811,-0.156705 -0.0691693,-0.31789 -0.0860827,-0.482657z"/>
    <polygon id="_454755864" class="fil12" points="2.78989,4.64199 1.44727,3.30785 2.33539,3.05079 "/>
    <polygon id="_454755672" class="fil13" points="2.33539,3.05079 1.51961,2.10824 2.08771,1.12905 "/>
    <polygon id="_454755192" class="fil14" points="1.44727,3.30785 1.51961,2.10824 2.33539,3.05079 "/>
    <path id="_454754856" class="fil15" d="M4.66968 2.62236l-0.660996 -1.18727 1.14087 -0.840169c0.0476378,0.0294094 0.0944528,0.0600157 0.140449,0.0917323l-0.620323 1.9357z"/>
    <path id="_454755216" class="fil16" d="M0.848209 1.34939l0.0138504 -0.0449528c0.166303,-0.200961 0.355913,-0.381909 0.56465,-0.538787l0.661004 0.363394 -1.2395 0.220346z"/>
    <polygon id="_454755072" class="fil17" points="1.51961,2.10824 1.51961,2.10824 0.848209,1.34939 2.08771,1.12905 "/>
    <path id="_454755024" class="fil7" d="M2.08771 1.12905l-0.661004 -0.363394c0.201051,-0.151094 0.419937,-0.279669 0.652819,-0.38235l0.00818504 0.745744z"/>
    <polygon id="_454754808" class="fil18" points="1.96375,5.71923 1.96375,5.71923 1.44727,3.30785 2.78989,4.64199 "/>
    <polygon id="_454754904" class="fil19" points="4.34954,4.32376 3.48196,3.73628 4.66968,2.62236 "/>
    <path id="_454755240" class="fil20" d="M1.8742 6.34421l0.0895472 -0.624984 0.60222 0.894453c-0.242614,-0.064126 -0.474323,-0.155039 -0.691768,-0.269469z"/>
    <polygon id="_454755048" class="fil21" points="3.48196,3.73628 4.00868,1.43509 4.66968,2.62236 "/>
    <path id="_454755456" class="fil7" d="M2.08771 1.12905l0 0 -0.00818504 -0.745744c0.115445,-0.0508937 0.23428,-0.0954921 0.356181,-0.133154l1.08752 0.230087 -1.43552 0.648811z"/>
    <polygon id="_454755504" class="fil5" points="2.78989,4.64199 2.78989,4.64199 2.33539,3.05079 3.48196,3.73628 "/>
    <polygon id="_454754280" class="fil22" points="3.62652,6.66162 1.96375,5.71923 2.78989,4.64199 "/>
    <path id="_454754760" class="fil23" d="M2.56597 6.61368l-0.60222 -0.894453 1.66277 0.94239 -0.117512 0.060248c-0.0317913,0.000905512 -0.0636693,0.00147244 -0.0956772,0.00147244 -0.292925,0 -0.576886,-0.0382283 -0.847362,-0.109657z"/>
    <polygon id="_454754736" class="fil14" points="3.48196,3.73628 3.48196,3.73628 2.33539,3.05079 4.00868,1.43509 "/>
    <polygon id="_454754664" class="fil3" points="2.33539,3.05079 2.33539,3.05079 2.08771,1.12905 4.00868,1.43509 "/>
    <polygon id="_454754184" class="fil0" points="4.00868,1.43509 2.08771,1.12905 3.52323,0.480236 "/>
    <path id="_454754040" class="fil24" d="M3.50901 6.72187l0.117512 -0.060248 0.0260551 0.0530433c-0.0475906,0.00339764 -0.0954409,0.00583858 -0.143567,0.00720472z"/>
    <polygon id="_454754064" class="fil25" points="3.62652,6.66162 3.62652,6.66162 2.78989,4.64199 4.25661,6.29452 "/>
    <polygon id="_454754544" class="fil22" points="4.25661,6.29452 4.25661,6.29452 2.78989,4.64199 4.34954,4.32376 "/>
    <path id="_454754088" class="fil26" d="M3.65257 6.71466l-0.0260551 -0.0530433 0.630087 -0.367094 -0.0383504 0.330047c-0.183016,0.0457244 -0.372024,0.0762559 -0.565681,0.0900906z"/>
    <polygon id="_454754496" class="fil18" points="2.78989,4.64199 3.48196,3.73628 4.34954,4.32376 "/>
    <path id="_454753872" class="fil16" d="M4.00868 1.43509l0 0 -0.485449 -0.954858 1.35448 -0.0359213c0.0931772,0.0460433 0.183878,0.096311 0.271843,0.15061l-1.14087 0.840169z"/>
    <polygon id="_454753560" class="fil23" points="4.25661,6.29452 4.34954,4.32376 5.32036,4.96022 "/>
    <path id="_454753440" class="fil1" d="M3.52323 0.480236l0 0 -1.08752 -0.230087c0.0435709,-0.0134488 0.0875669,-0.0259252 0.131882,-0.0376063l2.1773 0.169776c0.0448071,0.0197126 0.0890827,0.0403819 0.132823,0.0619961l-1.35448 0.0359213z"/>
    <path id="_454753392" class="fil27" d="M5.77474 5.73247l-0.454386 -0.772244 0.671232 -0.734311 0.0965079 1.13721c-0.0954488,0.130697 -0.200201,0.254146 -0.313354,0.369346z"/>
    <polygon id="_454753776" class="fil28" points="5.32036,4.96022 5.32036,4.96022 4.34954,4.32376 5.99159,4.22591 "/>
    <path id="_454753704" class="fil2" d="M5.99159 4.22591l-1.32191 -1.60355 1.41272 -1.16664c0.0535591,0.0728976 0.104224,0.148043 0.151787,0.225315l-0.242594 2.54488z"/>
    <path id="_454753680" class="fil17" d="M4.66968 2.62236l0.620323 -1.9357c0.305126,0.210409 0.573138,0.470685 0.792398,0.769063l-1.41272 1.16664z"/>
    <path id="_454753080" class="fil24" d="M4.96144 6.33947l-0.704839 -0.0449488 1.06375 -1.3343 0.454386 0.772244c-0.237354,0.241614 -0.511441,0.446969 -0.813299,0.607004z"/>
    <polygon id="_454753008" class="fil10" points="4.34954,4.32376 4.66968,2.62236 5.99159,4.22591 "/>
    <path id="_454752672" class="fil29" d="M4.21826 6.62457l0.0383504 -0.330047 0.704839 0.0449488c-0.232661,0.123339 -0.481748,0.219772 -0.743189,0.285098z"/>
    <path id="_454752600" class="fil30" d="M3.91797 0.141555l-1.12472 0.0200118c0.20089,-0.0380748 0.408114,-0.0582441 0.620079,-0.0582441 0.171575,0 0.340098,0.013063 0.504638,0.0382323z"/>
    <path id="_454752936" class="fil1" d="M4.74489 0.382319l-2.1773 -0.169776c0.0742283,-0.019563 0.1495,-0.0365197 0.225661,-0.0509764l1.12472 -0.0200118c0.28972,0.0443858 0.567028,0.126425 0.826917,0.240764z"/>
    <path id="_454752840" class="fil31" d="M5.99159 4.22591l0.242594 -2.54488c0.303311,0.492858 0.480957,1.07121 0.488626,1.69056l-0.73122 0.854323z"/>
    <path id="_454752648" class="fil32" d="M5.99159 4.22591l0.73122 -0.854323c0.000173228,0.0139134 0.000527559,0.0277835 0.000527559,0.0417402 0,0.224079 -0.0223976,0.442909 -0.0648386,0.654492l-0.666909 0.158091z"/>
    <path id="_454751736" class="fil20" d="M6.0881 5.36312l-0.0965079 -1.13721 0.48835 0.434898c-0.102228,0.250925 -0.234264,0.486508 -0.391843,0.702311z"/>
    <path id="_454752192" class="fil19" d="M6.47994 4.66081l-0.48835 -0.434898 0.666909 -0.158091c-0.0412126,0.20515 -0.10137,0.403433 -0.178559,0.592988z"/>
   </g>
   <path id="_454752120" class="fil33" d="M3.41333 0c0.942551,0 1.79589,0.382055 2.41358,0.999752 0.617697,0.617693 0.999752,1.47103 0.999752,2.41358 0,0.942551 -0.382055,1.79589 -0.999752,2.41358 -0.617693,0.617697 -1.47103,0.999752 -2.41358,0.999752 -0.942551,0 -1.79589,-0.382055 -2.41358,-0.999752 -0.617697,-0.617693 -0.999752,-1.47103 -0.999752,-2.41358 0,-0.942551 0.382055,-1.79589 0.999752,-2.41358 0.617693,-0.617697 1.47103,-0.999752 2.41358,-0.999752zm2.26731 1.14602c-0.580248,-0.580248 -1.38187,-0.939146 -2.26731,-0.939146 -0.885445,0 -1.68707,0.358898 -2.26731,0.939146 -0.580248,0.580248 -0.939146,1.38187 -0.939146,2.26731 0,0.885445 0.358898,1.68707 0.939146,2.26731 0.580248,0.580248 1.38187,0.939146 2.26731,0.939146 0.885445,0 1.68707,-0.358898 2.26731,-0.939146 0.580248,-0.580248 0.939146,-1.38187 0.939146,-2.26731 0,-0.885445 -0.358898,-1.68707 -0.939146,-2.26731z"/>
  </g>
  <g id="_447941976">
   <path id="_454752384" class="fil34" d="M2.96639 3.3157c-0.00177559,0.00073622 -0.00354331,0.00152756 -0.00532283,0.00224016l-0.342055 0.137768c-0.000496063,0.00209449 -0.000283465,0.00516929 1.1811e-005,0.00677559l0.270146 1.46652c0.000751969,0.000251969 0.00175197,0.000295276 0.00234646,0.000244094l0.652335 -0.0544331 0.0318268 0.471201 1.83766 -3.93701e-006 0 -0.27415c0,-0.19963 -0.0649094,-0.391815 -0.185031,-0.551138 -0.120063,-0.15924 -0.289213,-0.276386 -0.481012,-0.33174 -0.000440945,0.000279528 -0.000889764,0.00065748 -0.00114173,0.000905512l-0.251713 0.251717 -0.251996 -0.252012c-0.00199606,-0.000358268 -0.00524803,-4.33071e-005 -0.00693701,0.00023622l-0.963752 0.158287 -0.305362 -1.03242z"/>
   <path id="_454751976" class="fil33" d="M3.66489 4.20083l0.00545669 -0.62887c0.00150394,-0.172933 -0.0559134,-0.332854 -0.152965,-0.461579 -0.0995945,-0.132094 -0.24148,-0.231594 -0.404618,-0.278685l0.000106299 -0.000370079c-0.0301732,-0.00870472 -0.0612795,0.000783465 -0.0816024,0.0219843l-0.130496 0.1305 -0.13176 -0.13176 7.87402e-006 -7.87402e-006c-0.0208622,-0.0208583 -0.0501969,-0.028063 -0.0769213,-0.021626l-0.649319 0.10665 -0.208291 -0.70424 0.00015748 -0.000192913c-0.0127835,-0.0432323 -0.0582047,-0.0679134 -0.101433,-0.0551299 -0.00448425,0.00132677 -0.00876378,0.00300787 -0.0128228,0.00499606l-0.255705 0.102988 -0.000204724 -0.000149606c-0.038752,0.0156063 -0.0589724,0.0575827 -0.0483346,0.0969331l0.202094 1.09709 -0.000244094 0.00011811c0.00782677,0.0425079 0.0472756,0.0712087 0.0895866,0.066311l0.40076 -0.0334409 0.0131614 1.17616c6.29921e-005,0.0081378 0.00132677,0.0159803 0.00361024,0.023378l0.641043 0 -0.227421 -1.23461c-0.0106417,-0.0393465 0.00958268,-0.0813228 0.0483346,-0.0969331l0.000204724 0.000149606 0.343287 -0.138268c0.00406299,-0.00198819 0.00833858,-0.00366929 0.0128228,-0.00499606 0.0432323,-0.0127835 0.0886496,0.0119016 0.101433,0.0551299l-0.00015748 0.000192913 0.284933 0.96335c0.111764,-0.0183583 0.223528,-0.0367126 0.335295,-0.0550709z"/>
   <path id="_447956352" class="fil34" d="M3.91902 3.39857c0.16752,-0.0211772 0.35739,-0.118319 0.514531,-0.245004 0.0479843,-0.0386811 0.0931457,-0.0803622 0.133945,-0.12374 0.0638937,0.0806102 0.154004,0.144264 0.252949,0.189177 0.089248,0.0405079 0.18648,0.0662126 0.278327,0.0755945 -0.0265787,0.162894 -0.0982874,0.324331 -0.193689,0.454094 -0.116772,0.158827 -0.266748,0.267953 -0.407701,0.267953 -0.140953,0 -0.290933,-0.109126 -0.407701,-0.267953 -0.0750118,-0.102016 -0.135362,-0.223626 -0.170661,-0.350122zm1.32154 -0.238717c0,-0.243087 -0.0865,-0.401783 -0.226346,-0.50074 -0.135315,-0.095748 -0.317508,-0.131035 -0.516835,-0.131035 -0.199331,0 -0.38152,0.0352874 -0.516839,0.131035 -0.139846,0.0989567 -0.226346,0.257654 -0.226346,0.50074 0,0.234102 0.0935236,0.47961 0.230441,0.665839 0.140102,0.190559 0.327854,0.321492 0.512744,0.321492 0.184886,0 0.372642,-0.130933 0.51274,-0.321492 0.140768,-0.191469 0.230441,-0.427622 0.230441,-0.665839z"/>
   <path id="_447949392" class="fil34" d="M2.45762 2.17136c0.132921,-0.0168031 0.283583,-0.0938819 0.408272,-0.194402 0.0380748,-0.0306969 0.0739055,-0.0637677 0.106283,-0.098189 0.0506969,0.0639606 0.122197,0.114472 0.200709,0.150106 0.070815,0.0321457 0.147965,0.0525394 0.220846,0.0599843 -0.0210906,0.129252 -0.0779882,0.257354 -0.153689,0.360319 -0.0926575,0.12602 -0.211661,0.212614 -0.323504,0.212614 -0.111843,0 -0.230846,-0.0865945 -0.323504,-0.212614 -0.0595157,-0.0809528 -0.107402,-0.177445 -0.135413,-0.277819zm1.04862 -0.189413c0,-0.192886 -0.0686378,-0.318807 -0.179602,-0.397327 -0.10737,-0.0759764 -0.251937,-0.103976 -0.410098,-0.103976 -0.158161,0 -0.302728,0.028 -0.410098,0.103976 -0.110965,0.0785197 -0.179602,0.204441 -0.179602,0.397327 0,0.185756 0.0742087,0.380559 0.18285,0.528327 0.111165,0.151205 0.260146,0.255098 0.40685,0.255098 0.146705,0 0.295685,-0.103894 0.40685,-0.255098 0.111697,-0.151925 0.18285,-0.339307 0.18285,-0.528327z"/>
  </g>
 </g>
</svg>
